<svg width="30" height="30" viewBox="0 0 30 30" fill="none" xmlns="http://www.w3.org/2000/svg">
<mask id="mask0_516_150" style="mask-type:alpha" maskUnits="userSpaceOnUse" x="0" y="0" width="30" height="30">
<circle cx="15" cy="15" r="15" fill="#D9D9D9"/>
</mask>
<g mask="url(#mask0_516_150)">
<ellipse cx="14.5833" cy="15" rx="14.5833" ry="15" fill="#F0CD00"/>
<path d="M30.0026 15C30.0026 23.2843 23.4734 30 15.4193 30C7.36512 30 0.835938 23.2843 0.835938 15C0.835938 6.71573 7.36512 0 15.4193 0C23.4734 0 30.0026 6.71573 30.0026 15Z" fill="#FFDE50"/>
<path d="M30.0026 15C30.0026 23.2843 23.4734 30 15.4193 30C7.36512 30 0.835938 23.2843 0.835938 15C0.835938 6.71573 7.36512 0 15.4193 0C23.4734 0 30.0026 6.71573 30.0026 15Z" stroke="#FFDE50"/>
<path d="M24.1189 0.857178L1.66992 23.9476L3.71074 26.5715L26.6699 2.9563L24.1189 0.857178Z" fill="#FFEA94"/>
<path d="M28.2791 5.14307L5.83008 28.2334L7.87089 30.8573L30.8301 7.24219L28.2791 5.14307Z" fill="#FFEA94"/>
<ellipse cx="14.9987" cy="14.5718" rx="11.6667" ry="12" fill="#F68E00"/>
<ellipse cx="14.416" cy="14.5417" rx="11.25" ry="11.875" fill="#FFBD00"/>
<mask id="mask1_516_150" style="mask-type:alpha" maskUnits="userSpaceOnUse" x="3" y="2" width="24" height="25">
<ellipse cx="14.9987" cy="14.5718" rx="11.6667" ry="12" fill="#F68E00"/>
</mask>
<g mask="url(#mask1_516_150)">
<path d="M22.1459 4.82446C23.4223 5.80965 24.4966 7.04499 25.3076 8.45995C26.1186 9.87491 26.6503 11.4418 26.8724 13.0711C27.0945 14.7004 27.0026 16.3602 26.602 17.9558C26.2014 19.5515 25.4999 21.0516 24.5376 22.3706C23.5753 23.6896 22.371 24.8016 20.9935 25.6432C19.616 26.4848 18.0923 27.0394 16.5093 27.2754C14.9263 27.5115 13.315 27.4243 11.7675 27.0189C10.2201 26.6134 8.76662 25.8977 7.49023 24.9125L22.1459 4.82446Z" fill="#F68E00" fill-opacity="0.6"/>
</g>
<g filter="url(#filter0_d_516_150)">
<path fill-rule="evenodd" clip-rule="evenodd" d="M16.3155 4.98573C16.3155 4.36286 15.9114 3.85791 15.4128 3.85791C14.9142 3.85791 14.51 4.36286 14.51 4.98573V5.61641C13.4537 5.77455 12.4818 6.20952 11.7079 6.87731C10.7143 7.73473 9.99609 9.03491 9.99609 10.6248C9.99609 12.0617 10.44 13.396 11.4205 14.3383C12.1938 15.0814 13.2349 15.5179 14.51 15.6538V21.251C13.8023 21.1094 13.1923 20.8067 12.734 20.4111C12.094 19.8587 11.8016 19.1853 11.8016 18.5196C11.8016 17.8967 11.3975 17.3917 10.8989 17.3917C10.4003 17.3917 9.99609 17.8967 9.99609 18.5196C9.99609 20.1095 10.7143 21.4097 11.7079 22.2671C12.4818 22.9349 13.4537 23.3699 14.51 23.528V24.1587C14.51 24.7816 14.9142 25.2865 15.4128 25.2865C15.9114 25.2865 16.3155 24.7816 16.3155 24.1587V23.531C17.3647 23.3806 18.3356 22.966 19.1118 22.3073C20.1182 21.4534 20.8294 20.1477 20.8294 18.5196C20.8294 17.046 20.391 15.7025 19.3992 14.7653C18.6239 14.0326 17.5829 13.6174 16.3155 13.4884V7.8934C17.0232 8.03497 17.6332 8.33777 18.0915 8.73324C18.7316 9.2856 19.0239 9.95911 19.0239 10.6248C19.0239 11.2477 19.428 11.7526 19.9267 11.7526C20.4253 11.7526 20.8294 11.2477 20.8294 10.6248C20.8294 9.03491 20.1113 7.73473 19.1177 6.87732C18.3438 6.2095 17.3719 5.77454 16.3155 5.61641V4.98573ZM14.51 7.89341C13.8023 8.03498 13.1923 8.33778 12.734 8.73325C12.094 9.2856 11.8016 9.95911 11.8016 10.6248C11.8016 11.4436 12.0349 12.0829 12.5214 12.5505C12.9238 12.9372 13.5593 13.2621 14.51 13.3882V7.89341ZM16.3155 15.753V21.256C17.0297 21.1208 17.641 20.8287 18.0974 20.4414C18.7246 19.9092 19.0239 19.2411 19.0239 18.5196C19.0239 17.6435 18.7852 17.0133 18.31 16.5643C17.9097 16.186 17.2739 15.8734 16.3155 15.753Z" fill="#FFEA94"/>
</g>
</g>
<defs>
<filter id="filter0_d_516_150" x="8.91276" y="3.85791" width="11.9173" height="21.4285" filterUnits="userSpaceOnUse" color-interpolation-filters="sRGB">
<feFlood flood-opacity="0" result="BackgroundImageFix"/>
<feColorMatrix in="SourceAlpha" type="matrix" values="0 0 0 0 0 0 0 0 0 0 0 0 0 0 0 0 0 0 127 0" result="hardAlpha"/>
<feOffset dx="-1.08333"/>
<feComposite in2="hardAlpha" operator="out"/>
<feColorMatrix type="matrix" values="0 0 0 0 0.964706 0 0 0 0 0.556863 0 0 0 0 0 0 0 0 1 0"/>
<feBlend mode="normal" in2="BackgroundImageFix" result="effect1_dropShadow_516_150"/>
<feBlend mode="normal" in="SourceGraphic" in2="effect1_dropShadow_516_150" result="shape"/>
</filter>
</defs>
</svg>
