<svg width="398" height="411" viewBox="0 0 398 411" fill="none" xmlns="http://www.w3.org/2000/svg">
<path d="M363.921 411H34.0781C15.335 411 0 397.768 0 381.597V29.4035C0 13.2319 15.335 0 34.0781 0H363.922C382.665 0 398 13.2319 398 29.4035V381.597C397.999 397.768 382.664 411 363.921 411Z" fill="#304130"/>
<path d="M363.921 0H34.0781C15.335 0 0 13.2319 0 29.4046V317.106C20.4629 253.819 39.6558 174.714 127.782 101.963C223.712 22.7697 332.688 11.7989 384.273 5.90217C378.58 2.21562 371.545 0 363.921 0Z" fill="#547154"/>
<path d="M338.735 382.619H59.2602C43.7167 382.619 31 371.53 31 357.973V56.1815C31 42.6259 43.718 31.5347 59.2602 31.5347H338.735C354.279 31.5347 367 42.6259 367 56.1815V357.973C367 371.53 354.279 382.619 338.735 382.619Z" fill="#1C761C"/>
<path d="M339.096 378.414H58.9017C43.5565 378.414 31 367.45 31 354.052V59.049C31 45.6504 43.5565 34.688 58.9017 34.688H339.096C354.441 34.688 367 45.6504 367 59.049V354.051C367 367.45 354.441 378.414 339.096 378.414Z" fill="#359235"/>
<path d="M57.2594 20.0944C57.2594 20.0944 14.7858 18.286 18.8616 59.354" stroke="#304130" stroke-width="5.0811" stroke-miterlimit="10" stroke-linecap="round" stroke-linejoin="round"/>
<path d="M22.4004 75.4103C22.4004 77.1332 20.7438 78.5304 18.7008 78.5304C16.6566 78.5304 15 77.1332 15 75.4103C15 73.6862 16.6566 72.2891 18.7008 72.2891C20.745 72.2891 22.4004 73.6862 22.4004 75.4103Z" fill="#304130"/>
<path d="M339.779 390.819C339.779 390.819 382.253 392.628 378.175 351.559" stroke="#359235" stroke-width="5.0811" stroke-miterlimit="10" stroke-linecap="round" stroke-linejoin="round"/>
<path d="M375.139 335.504C375.139 334.132 376.488 332.882 378.338 332.882C380.19 332.882 381.539 334.132 381.539 335.504C381.539 336.874 380.189 338.125 378.338 338.125C376.487 338.125 375.139 336.875 375.139 335.504Z" fill="#359235" stroke="#359235"/>
<path d="M155.275 393.162C155.275 394.533 153.926 395.783 152.076 395.783C150.226 395.783 148.875 394.532 148.875 393.162C148.875 391.791 150.225 390.541 152.076 390.541C153.927 390.541 155.275 391.791 155.275 393.162Z" fill="#359235" stroke="#359235"/>
<path d="M379.411 79.7939L379.411 79.7939C381.263 79.793 382.611 81.0435 382.611 82.4141C382.611 83.7855 381.262 85.0353 379.411 85.0353C377.561 85.0353 376.211 83.7856 376.211 82.4141C376.211 81.0437 377.561 79.7939 379.411 79.7939Z" fill="#359235" stroke="#359235"/>
<path d="M379.41 95.168V145.644" stroke="#359235" stroke-width="5.0811" stroke-miterlimit="10" stroke-linecap="round" stroke-linejoin="round"/>
<path d="M83.377 393.162H137.22" stroke="#359235" stroke-width="5.0811" stroke-miterlimit="10" stroke-linecap="round" stroke-linejoin="round"/>
</svg>
